<mxfile host="app.diagrams.net" modified="2021-09-22T07:12:01.036Z" agent="5.0 (Windows)" etag="QKFrN4kNmlW0VNmaQQTC" version="15.2.9" type="github">
  <diagram id="7hQzBCkBdU_H9w4rOh0N" name="第 1 页">
    <mxGraphModel dx="4063" dy="2040" grid="1" gridSize="10" guides="1" tooltips="1" connect="1" arrows="1" fold="1" page="1" pageScale="1" pageWidth="5000" pageHeight="1000" math="0" shadow="0">
      <root>
        <mxCell id="0" />
        <mxCell id="1" parent="0" />
        <mxCell id="VgWYN8n7LNtqtZWlq0ul-239" value="" style="rounded=0;whiteSpace=wrap;html=1;fontSize=18;fillColor=#dae8fc;strokeColor=#6c8ebf;" parent="1" vertex="1">
          <mxGeometry x="2720" y="172" width="1030" height="1828" as="geometry" />
        </mxCell>
        <mxCell id="VgWYN8n7LNtqtZWlq0ul-238" value="" style="group" parent="1" vertex="1" connectable="0">
          <mxGeometry x="2790" y="310" width="1070" height="1642" as="geometry" />
        </mxCell>
        <mxCell id="VgWYN8n7LNtqtZWlq0ul-53" value="开始" style="strokeWidth=2;html=1;shape=mxgraph.flowchart.terminator;whiteSpace=wrap;fontSize=18;" parent="VgWYN8n7LNtqtZWlq0ul-238" vertex="1">
          <mxGeometry x="267.5" width="100" height="60" as="geometry" />
        </mxCell>
        <mxCell id="VgWYN8n7LNtqtZWlq0ul-122" value="j=0" style="rounded=0;whiteSpace=wrap;html=1;fontSize=18;" parent="VgWYN8n7LNtqtZWlq0ul-238" vertex="1">
          <mxGeometry x="257.5" y="110" width="120" height="60" as="geometry" />
        </mxCell>
        <mxCell id="VgWYN8n7LNtqtZWlq0ul-154" style="edgeStyle=orthogonalEdgeStyle;rounded=0;orthogonalLoop=1;jettySize=auto;html=1;entryX=0.5;entryY=0;entryDx=0;entryDy=0;fontSize=18;" parent="VgWYN8n7LNtqtZWlq0ul-238" source="VgWYN8n7LNtqtZWlq0ul-53" target="VgWYN8n7LNtqtZWlq0ul-122" edge="1">
          <mxGeometry relative="1" as="geometry" />
        </mxCell>
        <mxCell id="VgWYN8n7LNtqtZWlq0ul-131" value="&lt;div&gt;LocalParkingSport[j].ObjType == 0&lt;/div&gt;&lt;div&gt;该库位没有障碍物&lt;br&gt;&lt;/div&gt;" style="rhombus;whiteSpace=wrap;html=1;fontSize=18;" parent="VgWYN8n7LNtqtZWlq0ul-238" vertex="1">
          <mxGeometry x="152.5" y="530" width="330" height="150" as="geometry" />
        </mxCell>
        <mxCell id="leuu1m-iNAbnX1D4mWZV-1" style="edgeStyle=orthogonalEdgeStyle;rounded=0;orthogonalLoop=1;jettySize=auto;html=1;entryX=0.5;entryY=0;entryDx=0;entryDy=0;" parent="VgWYN8n7LNtqtZWlq0ul-238" source="VgWYN8n7LNtqtZWlq0ul-133" target="VgWYN8n7LNtqtZWlq0ul-207" edge="1">
          <mxGeometry relative="1" as="geometry" />
        </mxCell>
        <mxCell id="VgWYN8n7LNtqtZWlq0ul-133" value="&lt;div&gt;LocalParkingSport[j].type == 0/1/2&lt;/div&gt;&lt;div&gt;该库位为左侧库位&lt;br&gt;&lt;/div&gt;" style="rhombus;whiteSpace=wrap;html=1;fontSize=18;" parent="VgWYN8n7LNtqtZWlq0ul-238" vertex="1">
          <mxGeometry x="152.5" y="730" width="330" height="224" as="geometry" />
        </mxCell>
        <mxCell id="VgWYN8n7LNtqtZWlq0ul-140" style="edgeStyle=orthogonalEdgeStyle;rounded=0;orthogonalLoop=1;jettySize=auto;html=1;entryX=0.5;entryY=0;entryDx=0;entryDy=0;fontSize=18;" parent="VgWYN8n7LNtqtZWlq0ul-238" source="VgWYN8n7LNtqtZWlq0ul-131" target="VgWYN8n7LNtqtZWlq0ul-133" edge="1">
          <mxGeometry relative="1" as="geometry" />
        </mxCell>
        <mxCell id="VgWYN8n7LNtqtZWlq0ul-139" style="edgeStyle=orthogonalEdgeStyle;rounded=0;orthogonalLoop=1;jettySize=auto;html=1;entryX=0.5;entryY=0;entryDx=0;entryDy=0;fontSize=18;" parent="VgWYN8n7LNtqtZWlq0ul-238" source="VgWYN8n7LNtqtZWlq0ul-137" target="VgWYN8n7LNtqtZWlq0ul-131" edge="1">
          <mxGeometry relative="1" as="geometry" />
        </mxCell>
        <mxCell id="leuu1m-iNAbnX1D4mWZV-3" style="edgeStyle=orthogonalEdgeStyle;rounded=0;orthogonalLoop=1;jettySize=auto;html=1;entryX=0;entryY=0.5;entryDx=0;entryDy=0;entryPerimeter=0;" parent="VgWYN8n7LNtqtZWlq0ul-238" source="VgWYN8n7LNtqtZWlq0ul-137" target="VgWYN8n7LNtqtZWlq0ul-214" edge="1">
          <mxGeometry relative="1" as="geometry">
            <Array as="points">
              <mxPoint x="130" y="405" />
              <mxPoint x="130" y="1306" />
            </Array>
          </mxGeometry>
        </mxCell>
        <mxCell id="VgWYN8n7LNtqtZWlq0ul-137" value="j &amp;lt;13" style="rhombus;whiteSpace=wrap;html=1;fontSize=18;" parent="VgWYN8n7LNtqtZWlq0ul-238" vertex="1">
          <mxGeometry x="152.5" y="330" width="330" height="150" as="geometry" />
        </mxCell>
        <mxCell id="VgWYN8n7LNtqtZWlq0ul-146" value="&lt;b&gt;&lt;font color=&quot;#FF3333&quot;&gt;真&lt;/font&gt;&lt;/b&gt;" style="text;html=1;strokeColor=none;fillColor=none;align=center;verticalAlign=middle;whiteSpace=wrap;rounded=0;fontSize=18;" parent="VgWYN8n7LNtqtZWlq0ul-238" vertex="1">
          <mxGeometry x="290" y="680" width="40" height="20" as="geometry" />
        </mxCell>
        <mxCell id="VgWYN8n7LNtqtZWlq0ul-147" value="&lt;b&gt;&lt;font color=&quot;#FF3333&quot;&gt;真&lt;/font&gt;&lt;/b&gt;" style="text;html=1;strokeColor=none;fillColor=none;align=center;verticalAlign=middle;whiteSpace=wrap;rounded=0;fontSize=18;" parent="VgWYN8n7LNtqtZWlq0ul-238" vertex="1">
          <mxGeometry x="280" y="998" width="40" height="60" as="geometry" />
        </mxCell>
        <mxCell id="VgWYN8n7LNtqtZWlq0ul-148" value="&lt;b&gt;&lt;font color=&quot;#FF3333&quot;&gt;真&lt;/font&gt;&lt;/b&gt;" style="text;html=1;strokeColor=none;fillColor=none;align=center;verticalAlign=middle;whiteSpace=wrap;rounded=0;fontSize=18;" parent="VgWYN8n7LNtqtZWlq0ul-238" vertex="1">
          <mxGeometry x="280" y="490" width="40" height="20" as="geometry" />
        </mxCell>
        <mxCell id="VgWYN8n7LNtqtZWlq0ul-151" value="&lt;b&gt;&lt;font color=&quot;#FF3333&quot;&gt;真&lt;/font&gt;&lt;/b&gt;" style="text;html=1;strokeColor=none;fillColor=none;align=center;verticalAlign=middle;whiteSpace=wrap;rounded=0;fontSize=18;" parent="VgWYN8n7LNtqtZWlq0ul-238" vertex="1">
          <mxGeometry x="290" y="680" width="40" height="20" as="geometry" />
        </mxCell>
        <mxCell id="VgWYN8n7LNtqtZWlq0ul-153" value="&lt;b&gt;&lt;font color=&quot;#FF0000&quot;&gt;假&lt;/font&gt;&lt;/b&gt;" style="text;html=1;strokeColor=none;fillColor=none;align=center;verticalAlign=middle;whiteSpace=wrap;rounded=0;fontSize=18;" parent="VgWYN8n7LNtqtZWlq0ul-238" vertex="1">
          <mxGeometry x="486.24" y="820" width="40" height="80" as="geometry" />
        </mxCell>
        <mxCell id="VgWYN8n7LNtqtZWlq0ul-158" style="edgeStyle=orthogonalEdgeStyle;rounded=0;orthogonalLoop=1;jettySize=auto;html=1;entryX=0.5;entryY=0;entryDx=0;entryDy=0;fontSize=18;" parent="VgWYN8n7LNtqtZWlq0ul-238" source="VgWYN8n7LNtqtZWlq0ul-156" target="VgWYN8n7LNtqtZWlq0ul-137" edge="1">
          <mxGeometry relative="1" as="geometry" />
        </mxCell>
        <mxCell id="VgWYN8n7LNtqtZWlq0ul-156" value="j = j+1" style="rounded=0;whiteSpace=wrap;html=1;fontSize=18;" parent="VgWYN8n7LNtqtZWlq0ul-238" vertex="1">
          <mxGeometry x="257.51" y="230" width="120" height="60" as="geometry" />
        </mxCell>
        <mxCell id="VgWYN8n7LNtqtZWlq0ul-237" value="" style="edgeStyle=orthogonalEdgeStyle;rounded=0;orthogonalLoop=1;jettySize=auto;html=1;fontSize=18;" parent="VgWYN8n7LNtqtZWlq0ul-238" source="VgWYN8n7LNtqtZWlq0ul-122" target="VgWYN8n7LNtqtZWlq0ul-156" edge="1">
          <mxGeometry relative="1" as="geometry" />
        </mxCell>
        <mxCell id="VgWYN8n7LNtqtZWlq0ul-160" style="edgeStyle=orthogonalEdgeStyle;rounded=0;orthogonalLoop=1;jettySize=auto;html=1;fontSize=18;" parent="VgWYN8n7LNtqtZWlq0ul-238" source="VgWYN8n7LNtqtZWlq0ul-131" edge="1">
          <mxGeometry x="70" y="170" as="geometry">
            <mxPoint x="318" y="200" as="targetPoint" />
            <Array as="points">
              <mxPoint x="560" y="605" />
              <mxPoint x="560" y="200" />
              <mxPoint x="318" y="200" />
            </Array>
          </mxGeometry>
        </mxCell>
        <mxCell id="VgWYN8n7LNtqtZWlq0ul-150" value="&lt;b&gt;&lt;font color=&quot;#FF0000&quot;&gt;假&lt;/font&gt;&lt;/b&gt;" style="text;html=1;strokeColor=none;fillColor=none;align=center;verticalAlign=middle;whiteSpace=wrap;rounded=0;fontSize=18;" parent="VgWYN8n7LNtqtZWlq0ul-238" vertex="1">
          <mxGeometry x="520" y="450" width="40" height="20" as="geometry" />
        </mxCell>
        <mxCell id="leuu1m-iNAbnX1D4mWZV-2" style="edgeStyle=orthogonalEdgeStyle;rounded=0;orthogonalLoop=1;jettySize=auto;html=1;entryX=0.5;entryY=0;entryDx=0;entryDy=0;entryPerimeter=0;" parent="VgWYN8n7LNtqtZWlq0ul-238" source="VgWYN8n7LNtqtZWlq0ul-207" target="VgWYN8n7LNtqtZWlq0ul-214" edge="1">
          <mxGeometry relative="1" as="geometry" />
        </mxCell>
        <mxCell id="VgWYN8n7LNtqtZWlq0ul-207" value="使用左侧超声波雷达进行障碍物检测" style="rounded=0;whiteSpace=wrap;html=1;fontSize=18;" parent="VgWYN8n7LNtqtZWlq0ul-238" vertex="1">
          <mxGeometry x="206.26" y="1068" width="222.5" height="130" as="geometry" />
        </mxCell>
        <mxCell id="VgWYN8n7LNtqtZWlq0ul-208" value="使用右侧超声波雷达进行障碍物检测" style="rounded=0;whiteSpace=wrap;html=1;fontSize=18;" parent="VgWYN8n7LNtqtZWlq0ul-238" vertex="1">
          <mxGeometry x="690" y="1068" width="230" height="130" as="geometry" />
        </mxCell>
        <mxCell id="VgWYN8n7LNtqtZWlq0ul-214" value="结束" style="strokeWidth=2;html=1;shape=mxgraph.flowchart.terminator;whiteSpace=wrap;fontSize=18;" parent="VgWYN8n7LNtqtZWlq0ul-238" vertex="1">
          <mxGeometry x="520" y="1280" width="100" height="52" as="geometry" />
        </mxCell>
        <mxCell id="VgWYN8n7LNtqtZWlq0ul-216" style="edgeStyle=orthogonalEdgeStyle;rounded=0;orthogonalLoop=1;jettySize=auto;html=1;fontSize=18;entryX=1;entryY=0.5;entryDx=0;entryDy=0;entryPerimeter=0;" parent="VgWYN8n7LNtqtZWlq0ul-238" source="VgWYN8n7LNtqtZWlq0ul-208" target="VgWYN8n7LNtqtZWlq0ul-214" edge="1">
          <mxGeometry relative="1" as="geometry">
            <mxPoint x="506" y="1690" as="targetPoint" />
            <Array as="points">
              <mxPoint x="805" y="1306" />
            </Array>
          </mxGeometry>
        </mxCell>
        <mxCell id="VgWYN8n7LNtqtZWlq0ul-218" value="&lt;b&gt;&lt;font color=&quot;#FF0000&quot;&gt;假&lt;/font&gt;&lt;/b&gt;" style="text;html=1;strokeColor=none;fillColor=none;align=center;verticalAlign=middle;whiteSpace=wrap;rounded=0;fontSize=18;" parent="VgWYN8n7LNtqtZWlq0ul-238" vertex="1">
          <mxGeometry x="90" y="460" width="40" height="80" as="geometry" />
        </mxCell>
        <mxCell id="VgWYN8n7LNtqtZWlq0ul-225" style="edgeStyle=orthogonalEdgeStyle;rounded=0;orthogonalLoop=1;jettySize=auto;html=1;fontSize=18;entryX=0.5;entryY=0;entryDx=0;entryDy=0;" parent="VgWYN8n7LNtqtZWlq0ul-238" source="VgWYN8n7LNtqtZWlq0ul-133" target="VgWYN8n7LNtqtZWlq0ul-208" edge="1">
          <mxGeometry relative="1" as="geometry">
            <mxPoint x="805" y="1060" as="targetPoint" />
          </mxGeometry>
        </mxCell>
        <mxCell id="37CJagWb4j1WNpY-bCI--22" value="&lt;div&gt;&lt;b&gt;&lt;font style=&quot;font-size: 20px&quot;&gt;判断每一个本地视觉库位是否需要进行障碍物检测以及使用哪些传感器对该库位进行障碍物检测&lt;/font&gt;&lt;/b&gt;&lt;/div&gt;" style="text;html=1;strokeColor=none;fillColor=none;align=center;verticalAlign=middle;whiteSpace=wrap;rounded=0;" parent="1" vertex="1">
          <mxGeometry x="2660" y="144" width="1160" height="142" as="geometry" />
        </mxCell>
        <mxCell id="leuu1m-iNAbnX1D4mWZV-35" value="" style="group" parent="1" vertex="1" connectable="0">
          <mxGeometry x="3750" y="170" width="2010" height="1830" as="geometry" />
        </mxCell>
        <mxCell id="leuu1m-iNAbnX1D4mWZV-33" value="" style="rounded=0;whiteSpace=wrap;html=1;fillColor=#dae8fc;strokeColor=#6c8ebf;" parent="leuu1m-iNAbnX1D4mWZV-35" vertex="1">
          <mxGeometry width="2010" height="1830" as="geometry" />
        </mxCell>
        <mxCell id="leuu1m-iNAbnX1D4mWZV-7" style="edgeStyle=orthogonalEdgeStyle;rounded=0;orthogonalLoop=1;jettySize=auto;html=1;" parent="leuu1m-iNAbnX1D4mWZV-35" source="VgWYN8n7LNtqtZWlq0ul-66" edge="1">
          <mxGeometry relative="1" as="geometry">
            <mxPoint x="330" y="1730" as="targetPoint" />
            <Array as="points">
              <mxPoint x="80" y="395" />
              <mxPoint x="80" y="1730" />
            </Array>
          </mxGeometry>
        </mxCell>
        <mxCell id="VgWYN8n7LNtqtZWlq0ul-66" value="PosX&amp;gt;=LocalParkingSport[j].X1&lt;br&gt;(当前车辆坐标PosX大于等于库位第一个角点X1)" style="strokeWidth=2;html=1;shape=mxgraph.flowchart.decision;whiteSpace=wrap;fontSize=18;" parent="leuu1m-iNAbnX1D4mWZV-35" vertex="1">
          <mxGeometry x="180" y="270" width="540" height="250" as="geometry" />
        </mxCell>
        <mxCell id="VgWYN8n7LNtqtZWlq0ul-77" value="i=0" style="rounded=0;whiteSpace=wrap;html=1;fontSize=18;" parent="leuu1m-iNAbnX1D4mWZV-35" vertex="1">
          <mxGeometry x="390.3299999999999" y="600" width="120" height="60" as="geometry" />
        </mxCell>
        <mxCell id="37CJagWb4j1WNpY-bCI--40" style="edgeStyle=orthogonalEdgeStyle;rounded=0;orthogonalLoop=1;jettySize=auto;html=1;entryX=0.5;entryY=0;entryDx=0;entryDy=0;fontSize=18;" parent="leuu1m-iNAbnX1D4mWZV-35" source="VgWYN8n7LNtqtZWlq0ul-66" target="VgWYN8n7LNtqtZWlq0ul-77" edge="1">
          <mxGeometry relative="1" as="geometry" />
        </mxCell>
        <mxCell id="VgWYN8n7LNtqtZWlq0ul-86" value="i&amp;lt;250" style="strokeWidth=2;html=1;shape=mxgraph.flowchart.decision;whiteSpace=wrap;fontSize=18;" parent="leuu1m-iNAbnX1D4mWZV-35" vertex="1">
          <mxGeometry x="355.3299999999999" y="830" width="190" height="100" as="geometry" />
        </mxCell>
        <mxCell id="37CJagWb4j1WNpY-bCI--43" style="edgeStyle=orthogonalEdgeStyle;rounded=0;orthogonalLoop=1;jettySize=auto;html=1;fontSize=18;" parent="leuu1m-iNAbnX1D4mWZV-35" source="VgWYN8n7LNtqtZWlq0ul-99" edge="1">
          <mxGeometry relative="1" as="geometry">
            <mxPoint x="450" y="700" as="targetPoint" />
            <Array as="points">
              <mxPoint x="810" y="1185" />
              <mxPoint x="810" y="700" />
            </Array>
          </mxGeometry>
        </mxCell>
        <mxCell id="VgWYN8n7LNtqtZWlq0ul-99" value="&lt;div&gt;LeftRadarCQueueId1.data[i].dim&amp;lt;=3&lt;/div&gt;&lt;div&gt;LeftRadarCQueueId1.data[i].x &amp;gt;= LocalParkingSport[j].centreX-0.4&lt;br&gt;LeftRadarCQueueId1.data[i].x &amp;lt;= LocalParkingSport[j].centreX+0.4&lt;br&gt;&lt;/div&gt;" style="strokeWidth=2;html=1;shape=mxgraph.flowchart.decision;whiteSpace=wrap;fontSize=18;" parent="leuu1m-iNAbnX1D4mWZV-35" vertex="1">
          <mxGeometry x="140" y="1000" width="620" height="370" as="geometry" />
        </mxCell>
        <mxCell id="VgWYN8n7LNtqtZWlq0ul-116" style="edgeStyle=orthogonalEdgeStyle;rounded=0;orthogonalLoop=1;jettySize=auto;html=1;entryX=0.5;entryY=0;entryDx=0;entryDy=0;entryPerimeter=0;fontSize=18;" parent="leuu1m-iNAbnX1D4mWZV-35" source="VgWYN8n7LNtqtZWlq0ul-86" target="VgWYN8n7LNtqtZWlq0ul-99" edge="1">
          <mxGeometry relative="1" as="geometry" />
        </mxCell>
        <mxCell id="VgWYN8n7LNtqtZWlq0ul-129" value="&lt;div&gt;LocalParkingSport[j].ObjType = 1&lt;/div&gt;&lt;div&gt;标记该视觉本地库位有障碍物&lt;/div&gt;" style="rounded=0;whiteSpace=wrap;html=1;fontSize=18;" parent="leuu1m-iNAbnX1D4mWZV-35" vertex="1">
          <mxGeometry x="245" y="1420" width="410" height="140" as="geometry" />
        </mxCell>
        <mxCell id="37CJagWb4j1WNpY-bCI--39" style="edgeStyle=orthogonalEdgeStyle;rounded=0;orthogonalLoop=1;jettySize=auto;html=1;entryX=0.5;entryY=0;entryDx=0;entryDy=0;fontSize=18;" parent="leuu1m-iNAbnX1D4mWZV-35" source="VgWYN8n7LNtqtZWlq0ul-99" target="VgWYN8n7LNtqtZWlq0ul-129" edge="1">
          <mxGeometry relative="1" as="geometry" />
        </mxCell>
        <mxCell id="leuu1m-iNAbnX1D4mWZV-4" style="edgeStyle=orthogonalEdgeStyle;rounded=0;orthogonalLoop=1;jettySize=auto;html=1;entryX=0.5;entryY=0;entryDx=0;entryDy=0;entryPerimeter=0;" parent="leuu1m-iNAbnX1D4mWZV-35" source="37CJagWb4j1WNpY-bCI--27" target="VgWYN8n7LNtqtZWlq0ul-66" edge="1">
          <mxGeometry relative="1" as="geometry" />
        </mxCell>
        <mxCell id="37CJagWb4j1WNpY-bCI--27" value="&lt;font style=&quot;font-size: 18px&quot;&gt;使用左侧1号超声波雷达进行障碍物检测&lt;/font&gt;" style="strokeWidth=2;html=1;shape=mxgraph.flowchart.terminator;whiteSpace=wrap;labelBackgroundColor=none;labelBorderColor=none;fontSize=18;" parent="leuu1m-iNAbnX1D4mWZV-35" vertex="1">
          <mxGeometry x="310.3299999999999" y="30" width="280" height="170" as="geometry" />
        </mxCell>
        <mxCell id="37CJagWb4j1WNpY-bCI--38" style="edgeStyle=orthogonalEdgeStyle;rounded=0;orthogonalLoop=1;jettySize=auto;html=1;entryX=0.5;entryY=0;entryDx=0;entryDy=0;entryPerimeter=0;fontSize=18;" parent="leuu1m-iNAbnX1D4mWZV-35" source="37CJagWb4j1WNpY-bCI--36" target="VgWYN8n7LNtqtZWlq0ul-86" edge="1">
          <mxGeometry relative="1" as="geometry" />
        </mxCell>
        <mxCell id="37CJagWb4j1WNpY-bCI--36" value="i=i+1" style="rounded=0;whiteSpace=wrap;html=1;fontSize=18;" parent="leuu1m-iNAbnX1D4mWZV-35" vertex="1">
          <mxGeometry x="390.3299999999999" y="730" width="120" height="60" as="geometry" />
        </mxCell>
        <mxCell id="37CJagWb4j1WNpY-bCI--37" style="edgeStyle=orthogonalEdgeStyle;rounded=0;orthogonalLoop=1;jettySize=auto;html=1;entryX=0.5;entryY=0;entryDx=0;entryDy=0;fontSize=18;" parent="leuu1m-iNAbnX1D4mWZV-35" source="VgWYN8n7LNtqtZWlq0ul-77" target="37CJagWb4j1WNpY-bCI--36" edge="1">
          <mxGeometry relative="1" as="geometry" />
        </mxCell>
        <mxCell id="37CJagWb4j1WNpY-bCI--48" value="结束" style="strokeWidth=2;html=1;shape=mxgraph.flowchart.terminator;whiteSpace=wrap;labelBackgroundColor=none;fontSize=18;" parent="leuu1m-iNAbnX1D4mWZV-35" vertex="1">
          <mxGeometry x="330.3299999999999" y="1670" width="240" height="110" as="geometry" />
        </mxCell>
        <mxCell id="37CJagWb4j1WNpY-bCI--52" style="edgeStyle=orthogonalEdgeStyle;rounded=0;orthogonalLoop=1;jettySize=auto;html=1;entryX=-0.001;entryY=0.531;entryDx=0;entryDy=0;entryPerimeter=0;fontSize=18;exitX=0;exitY=0.5;exitDx=0;exitDy=0;exitPerimeter=0;" parent="leuu1m-iNAbnX1D4mWZV-35" source="VgWYN8n7LNtqtZWlq0ul-86" target="37CJagWb4j1WNpY-bCI--48" edge="1">
          <mxGeometry relative="1" as="geometry">
            <Array as="points">
              <mxPoint x="120" y="880" />
              <mxPoint x="120" y="1728" />
              <mxPoint x="300" y="1728" />
            </Array>
          </mxGeometry>
        </mxCell>
        <mxCell id="leuu1m-iNAbnX1D4mWZV-6" style="edgeStyle=orthogonalEdgeStyle;rounded=0;orthogonalLoop=1;jettySize=auto;html=1;entryX=0.5;entryY=0;entryDx=0;entryDy=0;entryPerimeter=0;" parent="leuu1m-iNAbnX1D4mWZV-35" source="VgWYN8n7LNtqtZWlq0ul-129" target="37CJagWb4j1WNpY-bCI--48" edge="1">
          <mxGeometry relative="1" as="geometry" />
        </mxCell>
        <mxCell id="37CJagWb4j1WNpY-bCI--55" value="&lt;font color=&quot;#FF0000&quot;&gt;真&lt;/font&gt;" style="text;html=1;strokeColor=none;fillColor=none;align=center;verticalAlign=middle;whiteSpace=wrap;rounded=0;labelBackgroundColor=none;fontSize=18;" parent="leuu1m-iNAbnX1D4mWZV-35" vertex="1">
          <mxGeometry x="400" y="536" width="50" height="80" as="geometry" />
        </mxCell>
        <mxCell id="37CJagWb4j1WNpY-bCI--56" value="&lt;font color=&quot;#FF0000&quot;&gt;真&lt;/font&gt;" style="text;html=1;strokeColor=none;fillColor=none;align=center;verticalAlign=middle;whiteSpace=wrap;rounded=0;labelBackgroundColor=none;fontSize=18;" parent="leuu1m-iNAbnX1D4mWZV-35" vertex="1">
          <mxGeometry x="440" y="920" width="50" height="80" as="geometry" />
        </mxCell>
        <mxCell id="37CJagWb4j1WNpY-bCI--60" value="&lt;font color=&quot;#FF0000&quot;&gt;假&lt;br&gt;&lt;/font&gt;" style="text;html=1;strokeColor=none;fillColor=none;align=center;verticalAlign=middle;whiteSpace=wrap;rounded=0;labelBackgroundColor=none;fontSize=18;" parent="leuu1m-iNAbnX1D4mWZV-35" vertex="1">
          <mxGeometry x="260" y="820" width="40" height="94" as="geometry" />
        </mxCell>
        <mxCell id="37CJagWb4j1WNpY-bCI--61" value="&lt;font color=&quot;#FF0000&quot;&gt;假&lt;br&gt;&lt;/font&gt;" style="text;html=1;strokeColor=none;fillColor=none;align=center;verticalAlign=middle;whiteSpace=wrap;rounded=0;labelBackgroundColor=none;fontSize=18;" parent="leuu1m-iNAbnX1D4mWZV-35" vertex="1">
          <mxGeometry x="770.3299999999999" y="1120" width="40" height="94" as="geometry" />
        </mxCell>
        <mxCell id="leuu1m-iNAbnX1D4mWZV-8" value="&lt;font color=&quot;#FF0000&quot;&gt;假&lt;br&gt;&lt;/font&gt;" style="text;html=1;strokeColor=none;fillColor=none;align=center;verticalAlign=middle;whiteSpace=wrap;rounded=0;labelBackgroundColor=none;fontSize=18;" parent="leuu1m-iNAbnX1D4mWZV-35" vertex="1">
          <mxGeometry x="100" y="370" width="40" height="94" as="geometry" />
        </mxCell>
        <mxCell id="leuu1m-iNAbnX1D4mWZV-11" style="edgeStyle=orthogonalEdgeStyle;rounded=0;orthogonalLoop=1;jettySize=auto;html=1;" parent="leuu1m-iNAbnX1D4mWZV-35" source="leuu1m-iNAbnX1D4mWZV-12" edge="1">
          <mxGeometry relative="1" as="geometry">
            <mxPoint x="1330" y="1719.9999999999995" as="targetPoint" />
            <Array as="points">
              <mxPoint x="1080" y="385" />
              <mxPoint x="1080" y="1720" />
            </Array>
          </mxGeometry>
        </mxCell>
        <mxCell id="leuu1m-iNAbnX1D4mWZV-12" value="PosX&amp;gt;=LocalParkingSport[j].X1&lt;br&gt;(当前车辆坐标X大于等于库位最小的x)" style="strokeWidth=2;html=1;shape=mxgraph.flowchart.decision;whiteSpace=wrap;fontSize=18;" parent="leuu1m-iNAbnX1D4mWZV-35" vertex="1">
          <mxGeometry x="1180" y="260" width="540" height="250" as="geometry" />
        </mxCell>
        <mxCell id="leuu1m-iNAbnX1D4mWZV-14" value="i=0" style="rounded=0;whiteSpace=wrap;html=1;fontSize=18;" parent="leuu1m-iNAbnX1D4mWZV-35" vertex="1">
          <mxGeometry x="1390.33" y="590" width="120" height="60" as="geometry" />
        </mxCell>
        <mxCell id="leuu1m-iNAbnX1D4mWZV-10" style="edgeStyle=orthogonalEdgeStyle;rounded=0;orthogonalLoop=1;jettySize=auto;html=1;entryX=0.5;entryY=0;entryDx=0;entryDy=0;fontSize=18;" parent="leuu1m-iNAbnX1D4mWZV-35" source="leuu1m-iNAbnX1D4mWZV-12" target="leuu1m-iNAbnX1D4mWZV-14" edge="1">
          <mxGeometry relative="1" as="geometry" />
        </mxCell>
        <mxCell id="leuu1m-iNAbnX1D4mWZV-17" value="i&amp;lt;250" style="strokeWidth=2;html=1;shape=mxgraph.flowchart.decision;whiteSpace=wrap;fontSize=18;" parent="leuu1m-iNAbnX1D4mWZV-35" vertex="1">
          <mxGeometry x="1355.33" y="820" width="190" height="100" as="geometry" />
        </mxCell>
        <mxCell id="leuu1m-iNAbnX1D4mWZV-19" style="edgeStyle=orthogonalEdgeStyle;rounded=0;orthogonalLoop=1;jettySize=auto;html=1;fontSize=18;" parent="leuu1m-iNAbnX1D4mWZV-35" source="leuu1m-iNAbnX1D4mWZV-20" edge="1">
          <mxGeometry relative="1" as="geometry">
            <mxPoint x="1450" y="690" as="targetPoint" />
            <Array as="points">
              <mxPoint x="1810" y="1175" />
              <mxPoint x="1810" y="690" />
            </Array>
          </mxGeometry>
        </mxCell>
        <mxCell id="leuu1m-iNAbnX1D4mWZV-20" value="&lt;div&gt;RightRadarCQueueId1.data[i].dim&amp;lt;=3.1&lt;/div&gt;&lt;div&gt;RightRadarCQueueId1.data[i].x &amp;gt;= LocalParkingSport[j].centreX-0.4&lt;br&gt;RightRadarCQueueId1.data[i].x &amp;lt;= LocalParkingSport[j].centreX+0.4&lt;br&gt;&lt;/div&gt;" style="strokeWidth=2;html=1;shape=mxgraph.flowchart.decision;whiteSpace=wrap;fontSize=18;" parent="leuu1m-iNAbnX1D4mWZV-35" vertex="1">
          <mxGeometry x="1140" y="990" width="620" height="370" as="geometry" />
        </mxCell>
        <mxCell id="leuu1m-iNAbnX1D4mWZV-15" style="edgeStyle=orthogonalEdgeStyle;rounded=0;orthogonalLoop=1;jettySize=auto;html=1;entryX=0.5;entryY=0;entryDx=0;entryDy=0;entryPerimeter=0;fontSize=18;" parent="leuu1m-iNAbnX1D4mWZV-35" source="leuu1m-iNAbnX1D4mWZV-17" target="leuu1m-iNAbnX1D4mWZV-20" edge="1">
          <mxGeometry relative="1" as="geometry" />
        </mxCell>
        <mxCell id="leuu1m-iNAbnX1D4mWZV-22" value="&lt;div&gt;LocalParkingSport[j].ObjType = 1&lt;/div&gt;&lt;div&gt;标记该视觉本地库位有障碍物&lt;/div&gt;" style="rounded=0;whiteSpace=wrap;html=1;fontSize=18;" parent="leuu1m-iNAbnX1D4mWZV-35" vertex="1">
          <mxGeometry x="1245" y="1410" width="410" height="140" as="geometry" />
        </mxCell>
        <mxCell id="leuu1m-iNAbnX1D4mWZV-18" style="edgeStyle=orthogonalEdgeStyle;rounded=0;orthogonalLoop=1;jettySize=auto;html=1;entryX=0.5;entryY=0;entryDx=0;entryDy=0;fontSize=18;" parent="leuu1m-iNAbnX1D4mWZV-35" source="leuu1m-iNAbnX1D4mWZV-20" target="leuu1m-iNAbnX1D4mWZV-22" edge="1">
          <mxGeometry relative="1" as="geometry" />
        </mxCell>
        <mxCell id="leuu1m-iNAbnX1D4mWZV-23" style="edgeStyle=orthogonalEdgeStyle;rounded=0;orthogonalLoop=1;jettySize=auto;html=1;entryX=0.5;entryY=0;entryDx=0;entryDy=0;entryPerimeter=0;" parent="leuu1m-iNAbnX1D4mWZV-35" source="leuu1m-iNAbnX1D4mWZV-24" target="leuu1m-iNAbnX1D4mWZV-12" edge="1">
          <mxGeometry relative="1" as="geometry" />
        </mxCell>
        <mxCell id="leuu1m-iNAbnX1D4mWZV-24" value="&lt;font style=&quot;font-size: 18px&quot;&gt;使用右侧1号超声波雷达进行障碍物检测&lt;/font&gt;" style="strokeWidth=2;html=1;shape=mxgraph.flowchart.terminator;whiteSpace=wrap;labelBackgroundColor=none;labelBorderColor=none;fontSize=18;" parent="leuu1m-iNAbnX1D4mWZV-35" vertex="1">
          <mxGeometry x="1310.33" y="20" width="280" height="170" as="geometry" />
        </mxCell>
        <mxCell id="leuu1m-iNAbnX1D4mWZV-25" style="edgeStyle=orthogonalEdgeStyle;rounded=0;orthogonalLoop=1;jettySize=auto;html=1;entryX=0.5;entryY=0;entryDx=0;entryDy=0;entryPerimeter=0;fontSize=18;" parent="leuu1m-iNAbnX1D4mWZV-35" source="leuu1m-iNAbnX1D4mWZV-26" target="leuu1m-iNAbnX1D4mWZV-17" edge="1">
          <mxGeometry relative="1" as="geometry" />
        </mxCell>
        <mxCell id="leuu1m-iNAbnX1D4mWZV-26" value="i=i+1" style="rounded=0;whiteSpace=wrap;html=1;fontSize=18;" parent="leuu1m-iNAbnX1D4mWZV-35" vertex="1">
          <mxGeometry x="1390.33" y="720" width="120" height="60" as="geometry" />
        </mxCell>
        <mxCell id="leuu1m-iNAbnX1D4mWZV-13" style="edgeStyle=orthogonalEdgeStyle;rounded=0;orthogonalLoop=1;jettySize=auto;html=1;entryX=0.5;entryY=0;entryDx=0;entryDy=0;fontSize=18;" parent="leuu1m-iNAbnX1D4mWZV-35" source="leuu1m-iNAbnX1D4mWZV-14" target="leuu1m-iNAbnX1D4mWZV-26" edge="1">
          <mxGeometry relative="1" as="geometry" />
        </mxCell>
        <mxCell id="leuu1m-iNAbnX1D4mWZV-27" value="结束" style="strokeWidth=2;html=1;shape=mxgraph.flowchart.terminator;whiteSpace=wrap;labelBackgroundColor=none;fontSize=18;" parent="leuu1m-iNAbnX1D4mWZV-35" vertex="1">
          <mxGeometry x="1330.33" y="1660" width="240" height="110" as="geometry" />
        </mxCell>
        <mxCell id="leuu1m-iNAbnX1D4mWZV-16" style="edgeStyle=orthogonalEdgeStyle;rounded=0;orthogonalLoop=1;jettySize=auto;html=1;entryX=-0.001;entryY=0.531;entryDx=0;entryDy=0;entryPerimeter=0;fontSize=18;exitX=0;exitY=0.5;exitDx=0;exitDy=0;exitPerimeter=0;" parent="leuu1m-iNAbnX1D4mWZV-35" source="leuu1m-iNAbnX1D4mWZV-17" target="leuu1m-iNAbnX1D4mWZV-27" edge="1">
          <mxGeometry relative="1" as="geometry">
            <Array as="points">
              <mxPoint x="1120" y="870" />
              <mxPoint x="1120" y="1718" />
              <mxPoint x="1300" y="1718" />
            </Array>
          </mxGeometry>
        </mxCell>
        <mxCell id="leuu1m-iNAbnX1D4mWZV-21" style="edgeStyle=orthogonalEdgeStyle;rounded=0;orthogonalLoop=1;jettySize=auto;html=1;entryX=0.5;entryY=0;entryDx=0;entryDy=0;entryPerimeter=0;" parent="leuu1m-iNAbnX1D4mWZV-35" source="leuu1m-iNAbnX1D4mWZV-22" target="leuu1m-iNAbnX1D4mWZV-27" edge="1">
          <mxGeometry relative="1" as="geometry" />
        </mxCell>
        <mxCell id="leuu1m-iNAbnX1D4mWZV-28" value="&lt;font color=&quot;#FF0000&quot;&gt;真&lt;/font&gt;" style="text;html=1;strokeColor=none;fillColor=none;align=center;verticalAlign=middle;whiteSpace=wrap;rounded=0;labelBackgroundColor=none;fontSize=18;" parent="leuu1m-iNAbnX1D4mWZV-35" vertex="1">
          <mxGeometry x="1400" y="526" width="50" height="80" as="geometry" />
        </mxCell>
        <mxCell id="leuu1m-iNAbnX1D4mWZV-29" value="&lt;font color=&quot;#FF0000&quot;&gt;真&lt;/font&gt;" style="text;html=1;strokeColor=none;fillColor=none;align=center;verticalAlign=middle;whiteSpace=wrap;rounded=0;labelBackgroundColor=none;fontSize=18;" parent="leuu1m-iNAbnX1D4mWZV-35" vertex="1">
          <mxGeometry x="1440" y="910" width="50" height="80" as="geometry" />
        </mxCell>
        <mxCell id="leuu1m-iNAbnX1D4mWZV-30" value="&lt;font color=&quot;#FF0000&quot;&gt;假&lt;br&gt;&lt;/font&gt;" style="text;html=1;strokeColor=none;fillColor=none;align=center;verticalAlign=middle;whiteSpace=wrap;rounded=0;labelBackgroundColor=none;fontSize=18;" parent="leuu1m-iNAbnX1D4mWZV-35" vertex="1">
          <mxGeometry x="1260" y="810" width="40" height="94" as="geometry" />
        </mxCell>
        <mxCell id="leuu1m-iNAbnX1D4mWZV-31" value="&lt;font color=&quot;#FF0000&quot;&gt;假&lt;br&gt;&lt;/font&gt;" style="text;html=1;strokeColor=none;fillColor=none;align=center;verticalAlign=middle;whiteSpace=wrap;rounded=0;labelBackgroundColor=none;fontSize=18;" parent="leuu1m-iNAbnX1D4mWZV-35" vertex="1">
          <mxGeometry x="1770.33" y="1110" width="40" height="94" as="geometry" />
        </mxCell>
        <mxCell id="leuu1m-iNAbnX1D4mWZV-32" value="&lt;font color=&quot;#FF0000&quot;&gt;假&lt;br&gt;&lt;/font&gt;" style="text;html=1;strokeColor=none;fillColor=none;align=center;verticalAlign=middle;whiteSpace=wrap;rounded=0;labelBackgroundColor=none;fontSize=18;" parent="leuu1m-iNAbnX1D4mWZV-35" vertex="1">
          <mxGeometry x="1100" y="360" width="40" height="94" as="geometry" />
        </mxCell>
        <mxCell id="leuu1m-iNAbnX1D4mWZV-34" value="&lt;b&gt;&lt;font style=&quot;font-size: 20px&quot;&gt;超声波障碍物检测&lt;/font&gt;&lt;/b&gt;" style="text;html=1;strokeColor=none;fillColor=none;align=center;verticalAlign=middle;whiteSpace=wrap;rounded=0;" parent="leuu1m-iNAbnX1D4mWZV-35" vertex="1">
          <mxGeometry x="840" y="-32" width="220" height="128" as="geometry" />
        </mxCell>
        <mxCell id="leuu1m-iNAbnX1D4mWZV-39" value="" style="group" parent="1" vertex="1" connectable="0">
          <mxGeometry x="1460" y="200" width="1140" height="770" as="geometry" />
        </mxCell>
        <mxCell id="VgWYN8n7LNtqtZWlq0ul-50" value="" style="rounded=0;whiteSpace=wrap;html=1;fillColor=#dae8fc;strokeColor=#6c8ebf;" parent="leuu1m-iNAbnX1D4mWZV-39" vertex="1">
          <mxGeometry width="1140" height="770" as="geometry" />
        </mxCell>
        <mxCell id="qisY4M1OJLYSLH0alggS-1" value="雷达新数据入大小为250的左侧1号循环队列LeftRadarCQueueId1" style="strokeWidth=2;html=1;shape=mxgraph.flowchart.terminator;whiteSpace=wrap;fontSize=12;" parent="leuu1m-iNAbnX1D4mWZV-39" vertex="1">
          <mxGeometry x="495" y="45" width="300" height="136" as="geometry" />
        </mxCell>
        <mxCell id="qisY4M1OJLYSLH0alggS-4" value="(LeftRadarCQueueId1.rear + 1) % 251 + (LeftRadarCQueueId1.rear + 1) / 251 != LeftRadarCQueueId1.front&lt;br&gt;(队列未满)" style="rhombus;whiteSpace=wrap;html=1;fontSize=12;" parent="leuu1m-iNAbnX1D4mWZV-39" vertex="1">
          <mxGeometry x="480" y="223" width="330" height="210" as="geometry" />
        </mxCell>
        <mxCell id="qisY4M1OJLYSLH0alggS-17" style="edgeStyle=orthogonalEdgeStyle;rounded=0;orthogonalLoop=1;jettySize=auto;html=1;entryX=0.5;entryY=0;entryDx=0;entryDy=0;fontSize=12;" parent="leuu1m-iNAbnX1D4mWZV-39" source="qisY4M1OJLYSLH0alggS-1" target="qisY4M1OJLYSLH0alggS-4" edge="1">
          <mxGeometry relative="1" as="geometry" />
        </mxCell>
        <mxCell id="qisY4M1OJLYSLH0alggS-5" value="LeftRadarCQueueId1.data[LeftRadarCQueueId1.rear] = [Posx,Posy,yaw,dim];&lt;br&gt;&lt;div&gt;LeftRadarCQueueId1.rear = ((LeftRadarCQueueId1.rear +1) % 251 ) + ( (LeftRadarCQueueId1.rear +1) / 251);&lt;/div&gt;&lt;div&gt;(雷达数据e从队尾入队列，队尾指针+1)&lt;br&gt;&lt;/div&gt;" style="rounded=0;whiteSpace=wrap;html=1;fontSize=12;" parent="leuu1m-iNAbnX1D4mWZV-39" vertex="1">
          <mxGeometry x="480" y="515" width="330" height="96" as="geometry" />
        </mxCell>
        <mxCell id="qisY4M1OJLYSLH0alggS-6" style="edgeStyle=orthogonalEdgeStyle;rounded=0;orthogonalLoop=1;jettySize=auto;html=1;entryX=0.5;entryY=0;entryDx=0;entryDy=0;fontSize=12;" parent="leuu1m-iNAbnX1D4mWZV-39" source="qisY4M1OJLYSLH0alggS-4" target="qisY4M1OJLYSLH0alggS-5" edge="1">
          <mxGeometry relative="1" as="geometry" />
        </mxCell>
        <mxCell id="qisY4M1OJLYSLH0alggS-7" value="&lt;div&gt;LeftRadarCQueueId1.front&amp;nbsp; = (LeftRadarCQueueId1.front + 1) % 251 + (LeftRadarCQueueId1.front + 1) / 251;&lt;/div&gt;&lt;div&gt;(删除对头数据)&lt;br&gt;&lt;/div&gt;" style="rounded=0;whiteSpace=wrap;html=1;fontSize=12;" parent="leuu1m-iNAbnX1D4mWZV-39" vertex="1">
          <mxGeometry x="835" y="417" width="270" height="88" as="geometry" />
        </mxCell>
        <mxCell id="qisY4M1OJLYSLH0alggS-9" style="edgeStyle=orthogonalEdgeStyle;rounded=0;orthogonalLoop=1;jettySize=auto;html=1;exitX=1;exitY=0.5;exitDx=0;exitDy=0;entryX=0.556;entryY=0;entryDx=0;entryDy=0;entryPerimeter=0;fontSize=12;" parent="leuu1m-iNAbnX1D4mWZV-39" source="qisY4M1OJLYSLH0alggS-4" target="qisY4M1OJLYSLH0alggS-7" edge="1">
          <mxGeometry relative="1" as="geometry" />
        </mxCell>
        <mxCell id="qisY4M1OJLYSLH0alggS-11" value="结束" style="strokeWidth=2;html=1;shape=mxgraph.flowchart.terminator;whiteSpace=wrap;fontSize=12;" parent="leuu1m-iNAbnX1D4mWZV-39" vertex="1">
          <mxGeometry x="595" y="641" width="100" height="60" as="geometry" />
        </mxCell>
        <mxCell id="qisY4M1OJLYSLH0alggS-12" style="edgeStyle=orthogonalEdgeStyle;rounded=0;orthogonalLoop=1;jettySize=auto;html=1;entryX=0.5;entryY=0;entryDx=0;entryDy=0;entryPerimeter=0;fontSize=12;" parent="leuu1m-iNAbnX1D4mWZV-39" source="qisY4M1OJLYSLH0alggS-5" target="qisY4M1OJLYSLH0alggS-11" edge="1">
          <mxGeometry relative="1" as="geometry" />
        </mxCell>
        <mxCell id="qisY4M1OJLYSLH0alggS-15" value="&lt;b&gt;&lt;font color=&quot;#FF0000&quot;&gt;真&lt;/font&gt;&lt;/b&gt;" style="text;html=1;strokeColor=none;fillColor=none;align=center;verticalAlign=middle;whiteSpace=wrap;rounded=0;fontSize=12;" parent="leuu1m-iNAbnX1D4mWZV-39" vertex="1">
          <mxGeometry x="605" y="429" width="40" height="60" as="geometry" />
        </mxCell>
        <mxCell id="qisY4M1OJLYSLH0alggS-10" style="edgeStyle=orthogonalEdgeStyle;rounded=0;orthogonalLoop=1;jettySize=auto;html=1;exitX=0;exitY=0.5;exitDx=0;exitDy=0;fontSize=12;entryX=1;entryY=0.5;entryDx=0;entryDy=0;" parent="leuu1m-iNAbnX1D4mWZV-39" source="qisY4M1OJLYSLH0alggS-7" target="qisY4M1OJLYSLH0alggS-15" edge="1">
          <mxGeometry relative="1" as="geometry">
            <mxPoint x="655" y="485" as="targetPoint" />
            <Array as="points">
              <mxPoint x="835" y="459" />
            </Array>
          </mxGeometry>
        </mxCell>
        <mxCell id="qisY4M1OJLYSLH0alggS-16" value="&lt;b&gt;&lt;font color=&quot;#FF0000&quot;&gt;假&lt;/font&gt;&lt;/b&gt;" style="text;html=1;strokeColor=none;fillColor=none;align=center;verticalAlign=middle;whiteSpace=wrap;rounded=0;fontSize=12;" parent="leuu1m-iNAbnX1D4mWZV-39" vertex="1">
          <mxGeometry x="885" y="311" width="40" height="20" as="geometry" />
        </mxCell>
        <mxCell id="VgWYN8n7LNtqtZWlq0ul-8" value="雷达新数据入大小为250的左侧1号循环队列LeftRadarCQueueId1" style="rounded=0;whiteSpace=wrap;html=1;" parent="leuu1m-iNAbnX1D4mWZV-39" vertex="1">
          <mxGeometry x="83.13000000000011" y="355" width="136.25" height="60" as="geometry" />
        </mxCell>
        <mxCell id="VgWYN8n7LNtqtZWlq0ul-9" value="" style="edgeStyle=orthogonalEdgeStyle;rounded=0;orthogonalLoop=1;jettySize=auto;html=1;" parent="leuu1m-iNAbnX1D4mWZV-39" source="VgWYN8n7LNtqtZWlq0ul-4" target="VgWYN8n7LNtqtZWlq0ul-8" edge="1">
          <mxGeometry y="15" as="geometry" />
        </mxCell>
        <mxCell id="VgWYN8n7LNtqtZWlq0ul-22" value="雷达新数据入大小为250的右侧1号循环队列RightRadarCQueueId1" style="rounded=0;whiteSpace=wrap;html=1;" parent="leuu1m-iNAbnX1D4mWZV-39" vertex="1">
          <mxGeometry x="80" y="635" width="142.5" height="60" as="geometry" />
        </mxCell>
        <mxCell id="VgWYN8n7LNtqtZWlq0ul-20" value="" style="edgeStyle=orthogonalEdgeStyle;rounded=0;orthogonalLoop=1;jettySize=auto;html=1;" parent="leuu1m-iNAbnX1D4mWZV-39" source="VgWYN8n7LNtqtZWlq0ul-21" target="VgWYN8n7LNtqtZWlq0ul-22" edge="1">
          <mxGeometry y="15" as="geometry" />
        </mxCell>
        <mxCell id="VgWYN8n7LNtqtZWlq0ul-3" style="edgeStyle=orthogonalEdgeStyle;rounded=0;orthogonalLoop=1;jettySize=auto;html=1;" parent="leuu1m-iNAbnX1D4mWZV-39" target="VgWYN8n7LNtqtZWlq0ul-2" edge="1">
          <mxGeometry x="70" y="45" as="geometry">
            <mxPoint x="331.25" y="103" as="sourcePoint" />
          </mxGeometry>
        </mxCell>
        <mxCell id="VgWYN8n7LNtqtZWlq0ul-2" value="左侧1号超声波是否有新数据" style="rhombus;whiteSpace=wrap;html=1;" parent="leuu1m-iNAbnX1D4mWZV-39" vertex="1">
          <mxGeometry x="246.25" y="165" width="170" height="111" as="geometry" />
        </mxCell>
        <mxCell id="VgWYN8n7LNtqtZWlq0ul-4" value="将超声波数据转到全局坐标系(Posx,Posy,yaw,dim)" style="rounded=0;whiteSpace=wrap;html=1;" parent="leuu1m-iNAbnX1D4mWZV-39" vertex="1">
          <mxGeometry x="91.25" y="255" width="120" height="60" as="geometry" />
        </mxCell>
        <mxCell id="VgWYN8n7LNtqtZWlq0ul-5" style="edgeStyle=orthogonalEdgeStyle;rounded=0;orthogonalLoop=1;jettySize=auto;html=1;entryX=0.45;entryY=0.001;entryDx=0;entryDy=0;entryPerimeter=0;" parent="leuu1m-iNAbnX1D4mWZV-39" source="VgWYN8n7LNtqtZWlq0ul-2" target="VgWYN8n7LNtqtZWlq0ul-4" edge="1">
          <mxGeometry x="70" y="45" as="geometry" />
        </mxCell>
        <mxCell id="VgWYN8n7LNtqtZWlq0ul-16" style="edgeStyle=orthogonalEdgeStyle;rounded=0;orthogonalLoop=1;jettySize=auto;html=1;" parent="leuu1m-iNAbnX1D4mWZV-39" source="VgWYN8n7LNtqtZWlq0ul-2" edge="1">
          <mxGeometry x="70" y="45" as="geometry">
            <mxPoint x="331" y="405" as="targetPoint" />
          </mxGeometry>
        </mxCell>
        <mxCell id="VgWYN8n7LNtqtZWlq0ul-21" value="将超声波数据转到全局坐标系(Posx,Posy,yaw,dim)" style="rounded=0;whiteSpace=wrap;html=1;" parent="leuu1m-iNAbnX1D4mWZV-39" vertex="1">
          <mxGeometry x="91.25999999999999" y="533" width="120" height="60" as="geometry" />
        </mxCell>
        <mxCell id="VgWYN8n7LNtqtZWlq0ul-23" value="右侧1号超声波是否有新数据" style="rhombus;whiteSpace=wrap;html=1;" parent="leuu1m-iNAbnX1D4mWZV-39" vertex="1">
          <mxGeometry x="246.25" y="405.5" width="170" height="111" as="geometry" />
        </mxCell>
        <mxCell id="VgWYN8n7LNtqtZWlq0ul-19" style="edgeStyle=orthogonalEdgeStyle;rounded=0;orthogonalLoop=1;jettySize=auto;html=1;entryX=0.5;entryY=0;entryDx=0;entryDy=0;" parent="leuu1m-iNAbnX1D4mWZV-39" source="VgWYN8n7LNtqtZWlq0ul-23" target="VgWYN8n7LNtqtZWlq0ul-21" edge="1">
          <mxGeometry x="70" y="45" as="geometry" />
        </mxCell>
        <mxCell id="VgWYN8n7LNtqtZWlq0ul-34" value="&lt;font color=&quot;#FF0000&quot;&gt;真&lt;/font&gt;" style="text;html=1;strokeColor=none;fillColor=none;align=center;verticalAlign=middle;whiteSpace=wrap;rounded=0;" parent="leuu1m-iNAbnX1D4mWZV-39" vertex="1">
          <mxGeometry x="190" y="461" width="40" height="20" as="geometry" />
        </mxCell>
        <mxCell id="VgWYN8n7LNtqtZWlq0ul-36" value="&lt;font color=&quot;#FF0000&quot;&gt;真&lt;/font&gt;" style="text;html=1;strokeColor=none;fillColor=none;align=center;verticalAlign=middle;whiteSpace=wrap;rounded=0;" parent="leuu1m-iNAbnX1D4mWZV-39" vertex="1">
          <mxGeometry x="206.25" y="225" width="40" height="20" as="geometry" />
        </mxCell>
        <mxCell id="VgWYN8n7LNtqtZWlq0ul-37" value="&lt;font color=&quot;#FF0000&quot;&gt;假&lt;/font&gt;" style="text;html=1;strokeColor=none;fillColor=none;align=center;verticalAlign=middle;whiteSpace=wrap;rounded=0;" parent="leuu1m-iNAbnX1D4mWZV-39" vertex="1">
          <mxGeometry x="321.25" y="315" width="40" height="20" as="geometry" />
        </mxCell>
        <mxCell id="VgWYN8n7LNtqtZWlq0ul-43" value="结束" style="strokeWidth=2;html=1;shape=mxgraph.flowchart.terminator;whiteSpace=wrap;" parent="leuu1m-iNAbnX1D4mWZV-39" vertex="1">
          <mxGeometry x="281.25" y="705" width="100" height="60" as="geometry" />
        </mxCell>
        <mxCell id="leuu1m-iNAbnX1D4mWZV-38" style="edgeStyle=orthogonalEdgeStyle;rounded=0;orthogonalLoop=1;jettySize=auto;html=1;entryX=0;entryY=0.5;entryDx=0;entryDy=0;entryPerimeter=0;" parent="leuu1m-iNAbnX1D4mWZV-39" source="VgWYN8n7LNtqtZWlq0ul-22" target="VgWYN8n7LNtqtZWlq0ul-43" edge="1">
          <mxGeometry relative="1" as="geometry" />
        </mxCell>
        <mxCell id="VgWYN8n7LNtqtZWlq0ul-46" value="开始" style="strokeWidth=2;html=1;shape=mxgraph.flowchart.terminator;whiteSpace=wrap;" parent="leuu1m-iNAbnX1D4mWZV-39" vertex="1">
          <mxGeometry x="281.25" y="45" width="100" height="60" as="geometry" />
        </mxCell>
        <mxCell id="VgWYN8n7LNtqtZWlq0ul-51" value="&lt;b&gt;&lt;font style=&quot;font-size: 20px&quot;&gt;超声波雷达数据预处理&lt;/font&gt;&lt;/b&gt;" style="text;html=1;strokeColor=none;fillColor=none;align=center;verticalAlign=middle;whiteSpace=wrap;rounded=0;fontSize=18;" parent="leuu1m-iNAbnX1D4mWZV-39" vertex="1">
          <mxGeometry x="11.25" y="35" width="230" height="20" as="geometry" />
        </mxCell>
        <mxCell id="leuu1m-iNAbnX1D4mWZV-37" style="edgeStyle=orthogonalEdgeStyle;rounded=0;orthogonalLoop=1;jettySize=auto;html=1;entryX=0.5;entryY=0;entryDx=0;entryDy=0;entryPerimeter=0;" parent="leuu1m-iNAbnX1D4mWZV-39" source="VgWYN8n7LNtqtZWlq0ul-23" target="VgWYN8n7LNtqtZWlq0ul-43" edge="1">
          <mxGeometry relative="1" as="geometry">
            <mxPoint x="436" y="355" as="targetPoint" />
          </mxGeometry>
        </mxCell>
        <mxCell id="leuu1m-iNAbnX1D4mWZV-40" style="edgeStyle=orthogonalEdgeStyle;rounded=0;orthogonalLoop=1;jettySize=auto;html=1;entryX=0.002;entryY=0.226;entryDx=0;entryDy=0;entryPerimeter=0;" parent="1" source="VgWYN8n7LNtqtZWlq0ul-50" target="VgWYN8n7LNtqtZWlq0ul-239" edge="1">
          <mxGeometry relative="1" as="geometry" />
        </mxCell>
        <mxCell id="_mxWHUpELOTDCrx8q8tH-39" value="" style="group" parent="1" vertex="1" connectable="0">
          <mxGeometry x="870" y="210" width="410" height="1070" as="geometry" />
        </mxCell>
        <mxCell id="_mxWHUpELOTDCrx8q8tH-38" value="" style="rounded=0;whiteSpace=wrap;html=1;gradientColor=#7ea6e0;fillColor=#dae8fc;strokeColor=#6c8ebf;" parent="_mxWHUpELOTDCrx8q8tH-39" vertex="1">
          <mxGeometry width="410" height="1070" as="geometry" />
        </mxCell>
        <mxCell id="_mxWHUpELOTDCrx8q8tH-14" value="左侧1号超声波雷达LeftRadarCQueueId1" style="swimlane;fontStyle=0;childLayout=stackLayout;horizontal=1;startSize=40;horizontalStack=0;resizeParent=1;resizeParentMax=0;resizeLast=0;collapsible=1;marginBottom=0;fontSize=18;fillColor=#a0522d;strokeColor=#6D1F00;fontColor=#ffffff;" parent="_mxWHUpELOTDCrx8q8tH-39" vertex="1">
          <mxGeometry x="35" y="570" width="360" height="118" as="geometry" />
        </mxCell>
        <mxCell id="_mxWHUpELOTDCrx8q8tH-15" value="data[250](x,y,q,dim): 超声波数据" style="text;strokeColor=#666666;fillColor=#f5f5f5;align=left;verticalAlign=top;spacingLeft=4;spacingRight=4;overflow=hidden;rotatable=0;points=[[0,0.5],[1,0.5]];portConstraint=eastwest;gradientColor=#b3b3b3;" parent="_mxWHUpELOTDCrx8q8tH-14" vertex="1">
          <mxGeometry y="40" width="360" height="26" as="geometry" />
        </mxCell>
        <mxCell id="_mxWHUpELOTDCrx8q8tH-16" value="front：循环队列队头指针(头删)" style="text;strokeColor=#666666;fillColor=#f5f5f5;align=left;verticalAlign=top;spacingLeft=4;spacingRight=4;overflow=hidden;rotatable=0;points=[[0,0.5],[1,0.5]];portConstraint=eastwest;gradientColor=#b3b3b3;" parent="_mxWHUpELOTDCrx8q8tH-14" vertex="1">
          <mxGeometry y="66" width="360" height="26" as="geometry" />
        </mxCell>
        <mxCell id="_mxWHUpELOTDCrx8q8tH-17" value="rear: 循环队列队尾指针(尾插)" style="text;strokeColor=#666666;fillColor=#f5f5f5;align=left;verticalAlign=top;spacingLeft=4;spacingRight=4;overflow=hidden;rotatable=0;points=[[0,0.5],[1,0.5]];portConstraint=eastwest;gradientColor=#b3b3b3;" parent="_mxWHUpELOTDCrx8q8tH-14" vertex="1">
          <mxGeometry y="92" width="360" height="26" as="geometry" />
        </mxCell>
        <mxCell id="_mxWHUpELOTDCrx8q8tH-18" value="右侧1号超声波雷达RightRadarCQueueId1" style="swimlane;fontStyle=0;childLayout=stackLayout;horizontal=1;startSize=40;horizontalStack=0;resizeParent=1;resizeParentMax=0;resizeLast=0;collapsible=1;marginBottom=0;fontSize=18;fillColor=#a0522d;strokeColor=#6D1F00;fontColor=#ffffff;" parent="_mxWHUpELOTDCrx8q8tH-39" vertex="1">
          <mxGeometry x="35" y="720" width="360" height="118" as="geometry" />
        </mxCell>
        <mxCell id="_mxWHUpELOTDCrx8q8tH-19" value="data[250](x,y,q,dim): 超声波数据" style="text;strokeColor=#666666;fillColor=#f5f5f5;align=left;verticalAlign=top;spacingLeft=4;spacingRight=4;overflow=hidden;rotatable=0;points=[[0,0.5],[1,0.5]];portConstraint=eastwest;gradientColor=#b3b3b3;" parent="_mxWHUpELOTDCrx8q8tH-18" vertex="1">
          <mxGeometry y="40" width="360" height="26" as="geometry" />
        </mxCell>
        <mxCell id="_mxWHUpELOTDCrx8q8tH-20" value="front：循环队列队头指针(头删)" style="text;strokeColor=#666666;fillColor=#f5f5f5;align=left;verticalAlign=top;spacingLeft=4;spacingRight=4;overflow=hidden;rotatable=0;points=[[0,0.5],[1,0.5]];portConstraint=eastwest;gradientColor=#b3b3b3;" parent="_mxWHUpELOTDCrx8q8tH-18" vertex="1">
          <mxGeometry y="66" width="360" height="26" as="geometry" />
        </mxCell>
        <mxCell id="_mxWHUpELOTDCrx8q8tH-21" value="rear: 循环队列队尾指针(尾插)" style="text;strokeColor=#666666;fillColor=#f5f5f5;align=left;verticalAlign=top;spacingLeft=4;spacingRight=4;overflow=hidden;rotatable=0;points=[[0,0.5],[1,0.5]];portConstraint=eastwest;gradientColor=#b3b3b3;" parent="_mxWHUpELOTDCrx8q8tH-18" vertex="1">
          <mxGeometry y="92" width="360" height="26" as="geometry" />
        </mxCell>
        <mxCell id="jrK2h-31VooN953HkJox-23" value="触发信号" style="swimlane;fontStyle=0;childLayout=stackLayout;horizontal=1;startSize=40;horizontalStack=0;resizeParent=1;resizeParentMax=0;resizeLast=0;collapsible=1;marginBottom=0;fontSize=18;fillColor=#A0522D;strokeColor=#FFFFFF;fontColor=#FFFFFF;" parent="_mxWHUpELOTDCrx8q8tH-39" vertex="1">
          <mxGeometry x="35" y="870" width="300" height="66" as="geometry" />
        </mxCell>
        <mxCell id="jrK2h-31VooN953HkJox-24" value="模块启动信号" style="text;strokeColor=#666666;fillColor=#f5f5f5;align=left;verticalAlign=top;spacingLeft=4;spacingRight=4;overflow=hidden;rotatable=0;points=[[0,0.5],[1,0.5]];portConstraint=eastwest;gradientColor=#b3b3b3;" parent="jrK2h-31VooN953HkJox-23" vertex="1">
          <mxGeometry y="40" width="300" height="26" as="geometry" />
        </mxCell>
        <mxCell id="jrK2h-31VooN953HkJox-17" value="视觉检测时本车位置戳" style="swimlane;fontStyle=0;childLayout=stackLayout;horizontal=1;startSize=40;horizontalStack=0;resizeParent=1;resizeParentMax=0;resizeLast=0;collapsible=1;marginBottom=0;fontSize=18;fillColor=#A0522D;strokeColor=#FFFFFF;fontColor=#FFFFFF;" parent="_mxWHUpELOTDCrx8q8tH-39" vertex="1">
          <mxGeometry x="35" y="980" width="300" height="66" as="geometry" />
        </mxCell>
        <mxCell id="jrK2h-31VooN953HkJox-18" value="视觉探测时本车坐标系与朝向" style="text;strokeColor=#666666;fillColor=#f5f5f5;align=left;verticalAlign=top;spacingLeft=4;spacingRight=4;overflow=hidden;rotatable=0;points=[[0,0.5],[1,0.5]];portConstraint=eastwest;gradientColor=#b3b3b3;" parent="jrK2h-31VooN953HkJox-17" vertex="1">
          <mxGeometry y="40" width="300" height="26" as="geometry" />
        </mxCell>
        <mxCell id="jrK2h-31VooN953HkJox-1" value="本地库位LocalParkingSport[12]" style="swimlane;fontStyle=0;childLayout=stackLayout;horizontal=1;startSize=40;horizontalStack=0;resizeParent=1;resizeParentMax=0;resizeLast=0;collapsible=1;marginBottom=0;fontSize=18;fillColor=#a0522d;strokeColor=#6D1F00;fontColor=#ffffff;" parent="_mxWHUpELOTDCrx8q8tH-39" vertex="1">
          <mxGeometry x="35" y="70" width="300" height="118" as="geometry" />
        </mxCell>
        <mxCell id="_mxWHUpELOTDCrx8q8tH-9" value="X1：库位第一个角点 X方向的坐标" style="text;strokeColor=#666666;fillColor=#f5f5f5;align=left;verticalAlign=top;spacingLeft=4;spacingRight=4;overflow=hidden;rotatable=0;points=[[0,0.5],[1,0.5]];portConstraint=eastwest;gradientColor=#b3b3b3;" parent="jrK2h-31VooN953HkJox-1" vertex="1">
          <mxGeometry y="40" width="300" height="26" as="geometry" />
        </mxCell>
        <mxCell id="_mxWHUpELOTDCrx8q8tH-8" value="centreX：库位中心点X方向的坐标" style="text;strokeColor=#666666;fillColor=#f5f5f5;align=left;verticalAlign=top;spacingLeft=4;spacingRight=4;overflow=hidden;rotatable=0;points=[[0,0.5],[1,0.5]];portConstraint=eastwest;gradientColor=#b3b3b3;" parent="jrK2h-31VooN953HkJox-1" vertex="1">
          <mxGeometry y="66" width="300" height="26" as="geometry" />
        </mxCell>
        <mxCell id="jrK2h-31VooN953HkJox-15" value="ObjType:是否有障碍物(车辆、雪糕筒)" style="text;strokeColor=#666666;fillColor=#f5f5f5;align=left;verticalAlign=top;spacingLeft=4;spacingRight=4;overflow=hidden;rotatable=0;points=[[0,0.5],[1,0.5]];portConstraint=eastwest;gradientColor=#b3b3b3;" parent="jrK2h-31VooN953HkJox-1" vertex="1">
          <mxGeometry y="92" width="300" height="26" as="geometry" />
        </mxCell>
        <mxCell id="leuu1m-iNAbnX1D4mWZV-41" value="传感器" style="swimlane;fontStyle=0;childLayout=stackLayout;horizontal=1;startSize=35;horizontalStack=0;resizeParent=1;resizeParentMax=0;resizeLast=0;collapsible=1;marginBottom=0;fontSize=18;fillColor=#A0522D;fontColor=#FFFFFF;" parent="_mxWHUpELOTDCrx8q8tH-39" vertex="1">
          <mxGeometry x="35" y="390" width="300" height="139" as="geometry" />
        </mxCell>
        <mxCell id="leuu1m-iNAbnX1D4mWZV-42" value="左侧1号超声波(靠近车尾)" style="text;strokeColor=#666666;fillColor=#f5f5f5;align=left;verticalAlign=top;spacingLeft=4;spacingRight=4;overflow=hidden;rotatable=0;points=[[0,0.5],[1,0.5]];portConstraint=eastwest;gradientColor=#b3b3b3;" parent="leuu1m-iNAbnX1D4mWZV-41" vertex="1">
          <mxGeometry y="35" width="300" height="26" as="geometry" />
        </mxCell>
        <mxCell id="leuu1m-iNAbnX1D4mWZV-43" value="左侧2号超声波(靠近车头)" style="text;strokeColor=#666666;fillColor=#f5f5f5;align=left;verticalAlign=top;spacingLeft=4;spacingRight=4;overflow=hidden;rotatable=0;points=[[0,0.5],[1,0.5]];portConstraint=eastwest;gradientColor=#b3b3b3;" parent="leuu1m-iNAbnX1D4mWZV-41" vertex="1">
          <mxGeometry y="61" width="300" height="26" as="geometry" />
        </mxCell>
        <mxCell id="leuu1m-iNAbnX1D4mWZV-45" value="右侧1号超声波(靠近车尾)" style="text;strokeColor=#666666;fillColor=#f5f5f5;align=left;verticalAlign=top;spacingLeft=4;spacingRight=4;overflow=hidden;rotatable=0;points=[[0,0.5],[1,0.5]];portConstraint=eastwest;gradientColor=#b3b3b3;" parent="leuu1m-iNAbnX1D4mWZV-41" vertex="1">
          <mxGeometry y="87" width="300" height="26" as="geometry" />
        </mxCell>
        <mxCell id="leuu1m-iNAbnX1D4mWZV-44" value="右侧2号超声波(靠近车头)" style="text;strokeColor=#666666;fillColor=#f5f5f5;align=left;verticalAlign=top;spacingLeft=4;spacingRight=4;overflow=hidden;rotatable=0;points=[[0,0.5],[1,0.5]];portConstraint=eastwest;gradientColor=#b3b3b3;" parent="leuu1m-iNAbnX1D4mWZV-41" vertex="1">
          <mxGeometry y="113" width="300" height="26" as="geometry" />
        </mxCell>
        <mxCell id="leuu1m-iNAbnX1D4mWZV-49" value="&lt;font style=&quot;font-size: 20px&quot;&gt;&lt;b&gt;输入&lt;/b&gt;&lt;/font&gt;" style="text;html=1;align=center;verticalAlign=middle;whiteSpace=wrap;rounded=0;fontSize=18;" parent="_mxWHUpELOTDCrx8q8tH-39" vertex="1">
          <mxGeometry x="130" y="10" width="90" height="50" as="geometry" />
        </mxCell>
        <mxCell id="jrK2h-31VooN953HkJox-21" value="当前时刻车辆位置戳" style="swimlane;fontStyle=0;childLayout=stackLayout;horizontal=1;startSize=40;horizontalStack=0;resizeParent=1;resizeParentMax=0;resizeLast=0;collapsible=1;marginBottom=0;fontSize=18;fillColor=#A0522D;strokeColor=#FFFFFF;fontColor=#FFFFFF;" parent="_mxWHUpELOTDCrx8q8tH-39" vertex="1">
          <mxGeometry x="35" y="230" width="300" height="118" as="geometry" />
        </mxCell>
        <mxCell id="_mxWHUpELOTDCrx8q8tH-6" value="当前时刻本车X方向的坐标PosX" style="text;strokeColor=#666666;fillColor=#f5f5f5;align=left;verticalAlign=top;spacingLeft=4;spacingRight=4;overflow=hidden;rotatable=0;points=[[0,0.5],[1,0.5]];portConstraint=eastwest;gradientColor=#b3b3b3;" parent="jrK2h-31VooN953HkJox-21" vertex="1">
          <mxGeometry y="40" width="300" height="26" as="geometry" />
        </mxCell>
        <mxCell id="_mxWHUpELOTDCrx8q8tH-7" value="当前时刻本车Y方向的坐标PosY" style="text;strokeColor=#666666;fillColor=#f5f5f5;align=left;verticalAlign=top;spacingLeft=4;spacingRight=4;overflow=hidden;rotatable=0;points=[[0,0.5],[1,0.5]];portConstraint=eastwest;gradientColor=#b3b3b3;" parent="jrK2h-31VooN953HkJox-21" vertex="1">
          <mxGeometry y="66" width="300" height="26" as="geometry" />
        </mxCell>
        <mxCell id="jrK2h-31VooN953HkJox-22" value="当前时刻本车在全局坐标系的朝向yaw" style="text;strokeColor=#666666;fillColor=#f5f5f5;align=left;verticalAlign=top;spacingLeft=4;spacingRight=4;overflow=hidden;rotatable=0;points=[[0,0.5],[1,0.5]];portConstraint=eastwest;gradientColor=#b3b3b3;" parent="jrK2h-31VooN953HkJox-21" vertex="1">
          <mxGeometry y="92" width="300" height="26" as="geometry" />
        </mxCell>
        <mxCell id="_mxWHUpELOTDCrx8q8tH-40" style="edgeStyle=orthogonalEdgeStyle;rounded=0;orthogonalLoop=1;jettySize=auto;html=1;" parent="1" source="_mxWHUpELOTDCrx8q8tH-38" target="VgWYN8n7LNtqtZWlq0ul-50" edge="1">
          <mxGeometry relative="1" as="geometry" />
        </mxCell>
      </root>
    </mxGraphModel>
  </diagram>
</mxfile>
